<mxfile host="app.diagrams.net" agent="Mozilla/5.0 (Windows NT 10.0; Win64; x64) AppleWebKit/537.36 (KHTML, like Gecko) Chrome/132.0.0.0 Safari/537.36" version="26.0.10">
  <diagram name="Page-1" id="aKfclMctbVHLOKzeMkFa">
    <mxGraphModel dx="1221" dy="725" grid="1" gridSize="10" guides="1" tooltips="1" connect="1" arrows="1" fold="1" page="1" pageScale="1" pageWidth="827" pageHeight="1169" math="0" shadow="0">
      <root>
        <mxCell id="0" />
        <mxCell id="1" parent="0" />
        <mxCell id="ZOhtGi2v_lVNk_9IUTgG-25" value="Start" style="whiteSpace=wrap;strokeWidth=2;" vertex="1" parent="1">
          <mxGeometry x="624" y="387" width="95" height="54" as="geometry" />
        </mxCell>
        <mxCell id="ZOhtGi2v_lVNk_9IUTgG-26" value="Environment Setup &amp; Data Preparation" style="whiteSpace=wrap;strokeWidth=2;" vertex="1" parent="1">
          <mxGeometry x="542" y="477" width="260" height="78" as="geometry" />
        </mxCell>
        <mxCell id="ZOhtGi2v_lVNk_9IUTgG-27" value="Data Classification &amp; Testing" style="whiteSpace=wrap;strokeWidth=2;" vertex="1" parent="1">
          <mxGeometry x="542" y="615" width="260" height="78" as="geometry" />
        </mxCell>
        <mxCell id="ZOhtGi2v_lVNk_9IUTgG-60" value="" style="edgeStyle=orthogonalEdgeStyle;rounded=0;orthogonalLoop=1;jettySize=auto;html=1;" edge="1" parent="1" source="ZOhtGi2v_lVNk_9IUTgG-28" target="ZOhtGi2v_lVNk_9IUTgG-30">
          <mxGeometry relative="1" as="geometry" />
        </mxCell>
        <mxCell id="ZOhtGi2v_lVNk_9IUTgG-28" value="Model Development &amp; Training" style="whiteSpace=wrap;strokeWidth=2;" vertex="1" parent="1">
          <mxGeometry x="542" y="751" width="260" height="78" as="geometry" />
        </mxCell>
        <mxCell id="ZOhtGi2v_lVNk_9IUTgG-62" value="" style="edgeStyle=orthogonalEdgeStyle;rounded=0;orthogonalLoop=1;jettySize=auto;html=1;" edge="1" parent="1" source="ZOhtGi2v_lVNk_9IUTgG-30" target="ZOhtGi2v_lVNk_9IUTgG-32">
          <mxGeometry relative="1" as="geometry" />
        </mxCell>
        <mxCell id="ZOhtGi2v_lVNk_9IUTgG-30" value="TrainÂ  Models" style="whiteSpace=wrap;strokeWidth=2;" vertex="1" parent="1">
          <mxGeometry x="548" y="875" width="247" height="54" as="geometry" />
        </mxCell>
        <mxCell id="ZOhtGi2v_lVNk_9IUTgG-32" value="System Interface Design &amp; Feature Integration" style="whiteSpace=wrap;strokeWidth=2;" vertex="1" parent="1">
          <mxGeometry x="542" y="973" width="260" height="78" as="geometry" />
        </mxCell>
        <mxCell id="ZOhtGi2v_lVNk_9IUTgG-33" value="Login &amp; Registration" style="whiteSpace=wrap;strokeWidth=2;" vertex="1" parent="1">
          <mxGeometry x="144" y="1136" width="205" height="54" as="geometry" />
        </mxCell>
        <mxCell id="ZOhtGi2v_lVNk_9IUTgG-34" value="Model Usage &amp; Visualization" style="whiteSpace=wrap;strokeWidth=2;" vertex="1" parent="1">
          <mxGeometry x="398" y="1124" width="260" height="78" as="geometry" />
        </mxCell>
        <mxCell id="ZOhtGi2v_lVNk_9IUTgG-35" value="User Interaction Enhancement" style="whiteSpace=wrap;strokeWidth=2;" vertex="1" parent="1">
          <mxGeometry x="708" y="1124" width="260" height="78" as="geometry" />
        </mxCell>
        <mxCell id="ZOhtGi2v_lVNk_9IUTgG-36" value="System Testing &amp; Performance Optimization" style="whiteSpace=wrap;strokeWidth=2;" vertex="1" parent="1">
          <mxGeometry x="708" y="1274" width="260" height="78" as="geometry" />
        </mxCell>
        <mxCell id="ZOhtGi2v_lVNk_9IUTgG-37" value="Functionality Testing" style="whiteSpace=wrap;strokeWidth=2;" vertex="1" parent="1">
          <mxGeometry x="593" y="1425" width="209" height="54" as="geometry" />
        </mxCell>
        <mxCell id="ZOhtGi2v_lVNk_9IUTgG-38" value="Optimization &amp; Refactoring" style="whiteSpace=wrap;strokeWidth=2;" vertex="1" parent="1">
          <mxGeometry x="851" y="1425" width="256" height="54" as="geometry" />
        </mxCell>
        <mxCell id="ZOhtGi2v_lVNk_9IUTgG-39" value="Project Presentation &amp; Submission" style="whiteSpace=wrap;strokeWidth=2;" vertex="1" parent="1">
          <mxGeometry x="849" y="1545" width="260" height="78" as="geometry" />
        </mxCell>
        <mxCell id="ZOhtGi2v_lVNk_9IUTgG-40" value="Presentation &amp; Documentation" style="whiteSpace=wrap;strokeWidth=2;" vertex="1" parent="1">
          <mxGeometry x="699" y="1683" width="260" height="78" as="geometry" />
        </mxCell>
        <mxCell id="ZOhtGi2v_lVNk_9IUTgG-41" value="Final Testing &amp; Packaging" style="whiteSpace=wrap;strokeWidth=2;" vertex="1" parent="1">
          <mxGeometry x="1009" y="1695" width="241" height="54" as="geometry" />
        </mxCell>
        <mxCell id="ZOhtGi2v_lVNk_9IUTgG-42" value="Project Completion" style="whiteSpace=wrap;strokeWidth=2;" vertex="1" parent="1">
          <mxGeometry x="1030" y="1800" width="199" height="54" as="geometry" />
        </mxCell>
        <mxCell id="ZOhtGi2v_lVNk_9IUTgG-43" value="" style="curved=1;startArrow=none;endArrow=block;exitX=0.5;exitY=1;entryX=0.5;entryY=0;rounded=0;" edge="1" parent="1" target="ZOhtGi2v_lVNk_9IUTgG-26">
          <mxGeometry relative="1" as="geometry">
            <Array as="points" />
            <mxPoint x="671.5" y="434" as="sourcePoint" />
          </mxGeometry>
        </mxCell>
        <mxCell id="ZOhtGi2v_lVNk_9IUTgG-44" value="Verify Data" style="curved=1;startArrow=none;endArrow=block;exitX=0.5;exitY=1;entryX=0.5;entryY=0;rounded=0;" edge="1" parent="1" source="ZOhtGi2v_lVNk_9IUTgG-26" target="ZOhtGi2v_lVNk_9IUTgG-27">
          <mxGeometry relative="1" as="geometry">
            <Array as="points" />
          </mxGeometry>
        </mxCell>
        <mxCell id="ZOhtGi2v_lVNk_9IUTgG-45" value="Develop Models" style="curved=1;startArrow=none;endArrow=block;exitX=0.5;exitY=1;entryX=0.5;entryY=0;rounded=0;" edge="1" parent="1" source="ZOhtGi2v_lVNk_9IUTgG-27" target="ZOhtGi2v_lVNk_9IUTgG-28">
          <mxGeometry relative="1" as="geometry">
            <Array as="points" />
          </mxGeometry>
        </mxCell>
        <mxCell id="ZOhtGi2v_lVNk_9IUTgG-50" value="Develop GUI" style="curved=1;startArrow=none;endArrow=block;exitX=0;exitY=0.8;entryX=0.5;entryY=-0.01;rounded=0;" edge="1" parent="1" source="ZOhtGi2v_lVNk_9IUTgG-32" target="ZOhtGi2v_lVNk_9IUTgG-33">
          <mxGeometry x="0.0011" relative="1" as="geometry">
            <Array as="points">
              <mxPoint x="246" y="1087" />
            </Array>
            <mxPoint as="offset" />
          </mxGeometry>
        </mxCell>
        <mxCell id="ZOhtGi2v_lVNk_9IUTgG-51" value="Implement Model Inference" style="curved=1;startArrow=none;endArrow=block;exitX=0.23;exitY=1;entryX=0.5;entryY=-0.01;rounded=0;" edge="1" parent="1" source="ZOhtGi2v_lVNk_9IUTgG-32" target="ZOhtGi2v_lVNk_9IUTgG-34">
          <mxGeometry relative="1" as="geometry">
            <Array as="points">
              <mxPoint x="528" y="1087" />
            </Array>
          </mxGeometry>
        </mxCell>
        <mxCell id="ZOhtGi2v_lVNk_9IUTgG-52" value="Optimize UI" style="curved=1;startArrow=none;endArrow=block;exitX=0.85;exitY=1;entryX=0.5;entryY=-0.01;rounded=0;" edge="1" parent="1" source="ZOhtGi2v_lVNk_9IUTgG-32" target="ZOhtGi2v_lVNk_9IUTgG-35">
          <mxGeometry relative="1" as="geometry">
            <Array as="points">
              <mxPoint x="838" y="1087" />
            </Array>
          </mxGeometry>
        </mxCell>
        <mxCell id="ZOhtGi2v_lVNk_9IUTgG-53" value="Test &amp; Optimize" style="curved=1;startArrow=none;endArrow=block;exitX=0.5;exitY=0.99;entryX=0.5;entryY=0;rounded=0;" edge="1" parent="1" source="ZOhtGi2v_lVNk_9IUTgG-35" target="ZOhtGi2v_lVNk_9IUTgG-36">
          <mxGeometry relative="1" as="geometry">
            <Array as="points" />
          </mxGeometry>
        </mxCell>
        <mxCell id="ZOhtGi2v_lVNk_9IUTgG-54" value="Test System Workflow" style="curved=1;startArrow=none;endArrow=block;exitX=0.22;exitY=1;entryX=0.5;entryY=0;rounded=0;" edge="1" parent="1" source="ZOhtGi2v_lVNk_9IUTgG-36" target="ZOhtGi2v_lVNk_9IUTgG-37">
          <mxGeometry relative="1" as="geometry">
            <Array as="points">
              <mxPoint x="697" y="1389" />
            </Array>
          </mxGeometry>
        </mxCell>
        <mxCell id="ZOhtGi2v_lVNk_9IUTgG-55" value="Fix Bugs &amp; Refactor" style="curved=1;startArrow=none;endArrow=block;exitX=0.78;exitY=1;entryX=0.5;entryY=0;rounded=0;" edge="1" parent="1" source="ZOhtGi2v_lVNk_9IUTgG-36" target="ZOhtGi2v_lVNk_9IUTgG-38">
          <mxGeometry relative="1" as="geometry">
            <Array as="points">
              <mxPoint x="979" y="1389" />
            </Array>
          </mxGeometry>
        </mxCell>
        <mxCell id="ZOhtGi2v_lVNk_9IUTgG-56" value="Finalize &amp; Submit" style="curved=1;startArrow=none;endArrow=block;exitX=0.5;exitY=1;entryX=0.5;entryY=-0.01;rounded=0;" edge="1" parent="1" source="ZOhtGi2v_lVNk_9IUTgG-38" target="ZOhtGi2v_lVNk_9IUTgG-39">
          <mxGeometry relative="1" as="geometry">
            <Array as="points" />
          </mxGeometry>
        </mxCell>
        <mxCell id="ZOhtGi2v_lVNk_9IUTgG-57" value="Prepare Demo" style="curved=1;startArrow=none;endArrow=block;exitX=0.2;exitY=0.99;entryX=0.5;entryY=0;rounded=0;" edge="1" parent="1" source="ZOhtGi2v_lVNk_9IUTgG-39" target="ZOhtGi2v_lVNk_9IUTgG-40">
          <mxGeometry relative="1" as="geometry">
            <Array as="points">
              <mxPoint x="829" y="1659" />
            </Array>
          </mxGeometry>
        </mxCell>
        <mxCell id="ZOhtGi2v_lVNk_9IUTgG-58" value="Final Testing" style="curved=1;startArrow=none;endArrow=block;exitX=0.8;exitY=0.99;entryX=0.5;entryY=0;rounded=0;" edge="1" parent="1" source="ZOhtGi2v_lVNk_9IUTgG-39" target="ZOhtGi2v_lVNk_9IUTgG-41">
          <mxGeometry relative="1" as="geometry">
            <Array as="points">
              <mxPoint x="1129" y="1659" />
            </Array>
          </mxGeometry>
        </mxCell>
        <mxCell id="ZOhtGi2v_lVNk_9IUTgG-59" value="" style="curved=1;startArrow=none;endArrow=block;exitX=0.5;exitY=1;entryX=0.5;entryY=0;rounded=0;" edge="1" parent="1" source="ZOhtGi2v_lVNk_9IUTgG-41" target="ZOhtGi2v_lVNk_9IUTgG-42">
          <mxGeometry relative="1" as="geometry">
            <Array as="points" />
          </mxGeometry>
        </mxCell>
      </root>
    </mxGraphModel>
  </diagram>
</mxfile>
